<svg xmlns="http://www.w3.org/2000/svg" width="640" height="200" viewBox="0 0 640 200">
  <defs>
    <linearGradient id="brandGradient" x1="0%" y1="0%" x2="100%" y2="100%">
      <stop offset="0%" stop-color="#5568d3"/>
      <stop offset="100%" stop-color="#f97316"/>
    </linearGradient>
  </defs>

  <rect width="640" height="200" fill="#ffffff"/>

  <rect x="40" y="40" width="120" height="120" rx="28" fill="url(#brandGradient)"/>
  <g transform="translate(68,68) scale(2.6667)">
    <path
      d="M15 5v2m0 4v2m0 4v2M5 5a2 2 0 00-2 2v3a2 2 0 110 4v3a2 2 0 002 2h14a2 2 0 002-2v-3a2 2 0 110-4V7a2 2 0 00-2-2H5z"
      fill="none"
      stroke="#ffffff"
      stroke-width="2"
      stroke-linecap="round"
      stroke-linejoin="round"
    />
  </g>

  <text x="195" y="128" font-family="-apple-system, BlinkMacSystemFont, 'Inter', 'Segoe UI', sans-serif" font-size="72" font-weight="800" fill="url(#brandGradient)">EventNow</text>
</svg>
